<?xml version="1.0" encoding="UTF-8"?>
<svg width="180px" height="39px" viewBox="0 0 180 39" version="1.1" xmlns="http://www.w3.org/2000/svg" xmlns:xlink="http://www.w3.org/1999/xlink">
    <!-- Generator: Sketch 41.2 (35397) - http://www.bohemiancoding.com/sketch -->
    <title>Main logo</title>
    <desc>Created with Sketch.</desc>
    <defs>
        <polygon id="path-1" points="3.66904868e-21 0.00812976744 3.66904868e-21 27.7324274 20.646503 27.7324274 20.646503 0.00812976744 0 0.00812976744"></polygon>
        <polygon id="path-3" points="0 39 180 39 180 0 0 0"></polygon>
    </defs>
    <g id="Symbols" stroke="none" stroke-width="1" fill="none" fill-rule="evenodd">
        <g id="Main-Navigation-Website-1140px">
            <g id="Main-logo">
                <path d="M30.4227653,15 C29.4370594,12.5633189 28.2690739,10.3393872 27,8.15779154 C28.7993163,5.59936102 32.8205021,2 32.8205021,2 C35.0855605,5.97780017 37.3589171,10.1561392 39,14.6854659 C36.0407135,14.8485709 33.3242466,14.954188 30.4227653,15 L30.4227653,15 Z" id="Fill-1" fill="#66B360"></path>
                <path d="M17,25.9821386 C18.7702987,22.1586747 19.4688597,20.749411 21.2959345,17.5471635 C26.2105663,17.6253566 35.1891773,17.3728051 39,17 C36.8527514,20.2555995 35.2191823,22.5559445 32.9862307,25.3112399 C27.1067654,25.8674365 20.2068585,26.0641896 17,25.9821386" id="Fill-3" fill="#66B360"></path>
                <path d="M23.1940339,0 C14.9491122,8.1817273 8.24154799,19.2112326 4,30.8125473 C5.39202129,33.5937112 6.96925858,36.3334343 8.72830414,39 C12.9525371,24.7709248 20.9836912,10.4074399 31,0.501832722 C28.4647234,0.193390082 25.8549368,0.0234467299 23.1940339,0" id="Fill-5" fill="#66B360"></path>
                <g id="Group-9">
                    <mask id="mask-2" fill="white">
                        <use xlink:href="#path-1"></use>
                    </mask>
                    <g id="Clip-8"></g>
                    <path d="M-2.70728015e-05,19.4375577 C0.881192594,22.2113484 1.94316833,24.9867507 3.18490746,27.7324274 C7.24880559,17.282274 13.2190801,7.48089023 20.646503,0.00812976744 C18.0288339,0.0763553488 15.4896759,0.289090233 12.8111832,0.658153023 C7.72330154,6.03615535 3.38398279,12.455717 -2.70728015e-05,19.4375577 Z" id="Fill-7" fill="#66B360" mask="url(#mask-2)"></path>
                </g>
                <path d="M101,13.0001369 C101,22.5850392 107.837254,26 114.235713,26 C117.080671,26 120.187401,25.3239608 123,24.0944252 L123,11.4517889 L112.233084,11.4465879 L112.233084,15.8719121 L117.062633,15.7676183 L117.062633,20.7354893 L116.894856,20.773995 C116.067301,20.9633298 115.2247,21.0676236 114.522411,21.0676236 C111.996873,21.0676236 107.760299,20.019667 107.760299,13.0001369 C107.760299,5.98060678 111.996873,4.93265016 114.522411,4.93265016 C116.775935,4.93265016 119.016769,5.59409009 121.077589,6.69533419 L122.919692,2.15631789 C119.834806,0.573570338 117.24165,0 114.235713,0 C107.837254,0 101,3.41523452 101,13.0001369" id="Fill-10" fill="#000000"></path>
                <path d="M164.749438,11.657547 C166.073544,11.5859826 167.00867,12.185916 167.00867,13.8903591 L167.00867,26 L173,26 L173,13.1986 C173,9.3751975 170.718355,7 167.704478,7 C165.723516,7 163.688417,7.98433701 161.573426,9.6329226 L161.374417,9.78831978 L161.255391,9.56228752 C160.372413,7.88609849 158.523219,7 156.682339,7 C154.892884,7 153.205193,7.852268 151.337472,9.3379282 L150.991692,9.61312619 L150.991692,7 L145,7 L145,26 L150.991692,26 L150.991692,13.2051988 L151.074657,13.1391178 C151.844304,12.2908463 152.833565,11.7139622 153.72775,11.657547 C155.074541,11.5725061 156.022139,12.185916 156.022139,13.8903591 L156.022139,26 L162.013469,26 L162.013469,14.3769976 C162.013469,14.0507751 161.997563,13.6329128 161.931317,13.2922844 C162.674754,12.4796093 163.898452,11.7035528 164.749438,11.657547" id="Fill-12" fill="#000000"></path>
                <path d="M136.97398,14.9094829 L130.785329,14.8490761 L130.815774,14.6079029 C131.116667,12.2412258 132.353794,10.7119786 133.967526,10.7119786 C136.033132,10.7119786 136.97398,12.7750771 136.97398,14.6917458 L136.97398,14.9094829 Z M139.731021,9.1998996 C138.393418,7.74005211 136.477638,7 134.037025,7 C129.546072,7 125,10.3862357 125,16.8581264 C125,22.5824254 128.548507,26 134.492626,26 C136.724656,26 139.700931,25.2725743 141.427743,24.1697177 L140.080998,20.6851051 C137.857313,22.2031793 134.911481,22.6437406 133.002802,21.7383644 C131.631826,21.0879688 130.873023,19.7932637 130.744589,18.130213 L130.726482,17.8974876 L141.966245,17.8974876 C142.176072,14.030813 141.404843,11.0262759 139.731021,9.1998996 L139.731021,9.1998996 Z" id="Fill-14" fill="#000000"></path>
                <path d="M51.6448278,12.8228491 L51.6448278,4.76282956 L54.766027,4.76282956 C57.4563311,4.76282956 59.0622342,6.2625918 59.0622342,8.77477975 C59.0622342,11.2718122 57.3596773,12.8228491 54.6184882,12.8228491 L51.6448278,12.8228491 Z M66,8.77477975 C66,3.44429844 62.0803609,0 56.0138741,0 L45,0 L45,25 L51.6448278,25 L51.6448278,17.5856787 L55.9034526,17.5856787 C61.9423108,17.5856787 66,14.0448204 66,8.77477975 L66,8.77477975 Z" id="Fill-16" fill="#000000"></path>
                <mask id="mask-4" fill="white">
                    <use xlink:href="#path-3"></use>
                </mask>
                <g id="Clip-19"></g>
                <polygon id="Fill-18" fill="#000000" mask="url(#mask-4)" points="67 25 73 25 73 0 67 0"></polygon>
                <path d="M89.9968267,7 L86.1643774,17.8646923 L82.331928,7 L76,7 C76.2684619,7.72305838 82.4032821,24.1548114 83.1404869,26.3370844 C82.6503468,27.8093969 80.8932409,29.8907609 78.3595811,31.2103263 L80.1123351,36 C84.8450972,33.3387319 86.7707512,31.4402771 88.8502652,26.2846928 C90.9240673,21.1434056 96,7 96,7 L89.9968267,7 Z" id="Fill-20" fill="#000000" mask="url(#mask-4)"></path>
                <path d="M178.475219,8.55821987 C178.475219,8.44783581 178.436691,8.35565942 178.358903,8.28201585 C178.281929,8.20845357 178.18252,8.17163178 178.060677,8.17163178 L177.652151,8.17163178 L177.652151,8.93976834 L178.060677,8.93976834 C178.18252,8.93976834 178.281929,8.90335298 178.358903,8.83149766 C178.436691,8.75996749 178.475219,8.66860394 178.475219,8.55821987 L178.475219,8.55821987 Z M178.486192,10.0944117 L177.983296,9.19947165 L177.652151,9.19947165 L177.652151,10.0944117 L177.347991,10.0944117 L177.347991,7.90095509 L178.093678,7.90095509 C178.189673,7.90095509 178.278921,7.9174558 178.36183,7.95086365 C178.444738,7.98386507 178.517486,8.02995326 178.580074,8.08831538 C178.642742,8.14757163 178.69265,8.21771998 178.72939,8.29851656 C178.766211,8.37971957 178.784825,8.46604349 178.784825,8.55821987 C178.784825,8.72021947 178.740363,8.85092461 178.652009,8.9503353 C178.563654,9.05015241 178.451078,9.11989433 178.31493,9.16053648 L178.839772,10.0944117 L178.486192,10.0944117 Z M179.684867,9.00024385 C179.684867,8.76468198 179.6413,8.54342613 179.552458,8.33745174 C179.464104,8.13107092 179.343561,7.95086365 179.190831,7.79561065 C179.037776,7.64125178 178.859279,7.51859378 178.654935,7.42853079 C178.450672,7.33838651 178.232021,7.29270473 178.000203,7.29270473 C177.767979,7.29270473 177.549735,7.33838651 177.345472,7.42853079 C177.141208,7.51859378 176.963118,7.64125178 176.812176,7.79561065 C176.661153,7.95086365 176.541424,8.13107092 176.453069,8.33745174 C176.364634,8.54342613 176.32066,8.76468198 176.32066,9.00024385 C176.32066,9.23580573 176.364634,9.45706157 176.453069,9.66344239 C176.541424,9.86941679 176.661153,10.0500305 176.812176,10.2043894 C176.963118,10.3596423 177.141208,10.4823003 177.345472,10.5719569 C177.549735,10.6625076 177.767979,10.7073765 178.000203,10.7073765 C178.232021,10.7073765 178.450672,10.6625076 178.654935,10.5719569 C178.859279,10.4823003 179.037776,10.3596423 179.190831,10.2043894 C179.343561,10.0500305 179.464104,9.86941679 179.552458,9.66344239 C179.6413,9.45706157 179.684867,9.23580573 179.684867,9.00024385 L179.684867,9.00024385 Z M180,9.00024385 C180,9.27644788 179.947491,9.53615119 179.842637,9.77935379 C179.737295,10.02215 179.595212,10.2344645 179.414196,10.4146718 C179.233992,10.5952855 179.022089,10.7377769 178.778891,10.8426336 C178.5361,10.9475716 178.275995,11 178.000203,11 C177.723598,11 177.464307,10.9475716 177.220703,10.8426336 C176.977911,10.7377769 176.766008,10.5952855 176.585398,10.4146718 C176.405275,10.2344645 176.262299,10.02215 176.157363,9.77935379 C176.052509,9.53615119 176,9.27644788 176,9.00024385 C176,8.72403983 176.052509,8.46433652 176.157363,8.22113392 C176.262299,7.97793131 176.405275,7.76642959 176.585398,7.58581589 C176.766008,7.40520219 176.977911,7.26271083 177.220703,7.15777281 C177.464307,7.05242837 177.723598,7 178.000203,7 C178.275995,7 178.5361,7.05242837 178.778891,7.15777281 C179.022089,7.26271083 179.233992,7.40520219 179.414196,7.58581589 C179.595212,7.76642959 179.737295,7.97793131 179.842637,8.22113392 C179.947491,8.46433652 180,8.72403983 180,9.00024385 L180,9.00024385 Z" id="Fill-21" fill="#000000" mask="url(#mask-4)"></path>
            </g>
        </g>
    </g>
</svg>